<svg width="21" height="20" viewBox="0 0 21 20" fill="none" xmlns="http://www.w3.org/2000/svg">
<path d="M12.5833 14.5833V6.25H6.75007C4.78591 6.25 3.80382 6.25 3.19363 6.86018C2.58343 7.47037 2.58342 8.45242 2.58341 10.4167L2.58337 13.75C2.58336 15.7142 2.58335 16.6962 3.19354 17.3065C3.80374 17.9167 4.78584 17.9167 6.75004 17.9167H9.24999C10.8213 17.9167 11.607 17.9167 12.0952 17.4285C12.5833 16.9403 12.5833 16.1547 12.5833 14.5833Z" stroke="white" stroke-width="1.5" stroke-linecap="round" stroke-linejoin="round"/>
<path d="M12.5833 13.75H14.2499C16.2141 13.75 17.1963 13.75 17.8064 13.1398C18.4166 12.5296 18.4166 11.5475 18.4166 9.58334V6.25001C18.4166 4.28583 18.4166 3.30374 17.8064 2.69354C17.1963 2.08334 16.2141 2.08334 14.2499 2.08334H8.41675L8.41686 6.25001" stroke="white" stroke-width="1.5" stroke-linecap="round" stroke-linejoin="round"/>
<path d="M5.08337 10.4167H8.00004M5.08337 13.75H10.0834" stroke="white" stroke-width="1.5" stroke-linecap="round" stroke-linejoin="round"/>
<path d="M8.41675 2.08334L12.5834 6.25001" stroke="white" stroke-width="1.5" stroke-linecap="round" stroke-linejoin="round"/>
</svg>
