<svg width="21" height="20" viewBox="0 0 21 20" fill="none" xmlns="http://www.w3.org/2000/svg">
<path d="M2.16663 2.91666V17.0833" stroke="black" stroke-opacity="0.58" stroke-width="1.5" stroke-linecap="round" stroke-linejoin="round"/>
<path d="M18.8334 7.08334V17.0833" stroke="black" stroke-opacity="0.58" stroke-width="1.5" stroke-linecap="round" stroke-linejoin="round"/>
<path d="M2.16663 7.08334L5.49996 8.75001H18.8333" stroke="black" stroke-opacity="0.58" stroke-width="1.5" stroke-linecap="round" stroke-linejoin="round"/>
<path d="M2.16663 12.9167H5.49996M18.8333 12.9167H16.3333" stroke="black" stroke-opacity="0.58" stroke-width="1.5" stroke-linecap="round" stroke-linejoin="round"/>
<path d="M5.5 8.75V13.75C5.5 15.1289 5.78777 15.4167 7.16667 15.4167H14.6667C16.0456 15.4167 16.3333 15.1289 16.3333 13.75V8.75" stroke="black" stroke-opacity="0.58" stroke-width="1.5" stroke-linecap="round" stroke-linejoin="round"/>
<path d="M6.17798 8.75001C6.24483 8.39668 6.35013 8.02708 6.32968 7.66429C6.29947 7.12801 6.03077 6.63855 5.60529 6.34474C5.43728 6.22873 5.06663 6.11034 4.67719 6.00912C4.10896 5.86143 3.82484 5.78758 3.49281 5.86371C3.25697 5.91779 3.05211 6.04324 2.75925 6.26734C2.72698 6.29203 2.71085 6.30437 2.6857 6.32523C2.48688 6.49011 2.31059 6.72855 2.21123 6.96696C2.19866 6.99712 2.18798 7.02586 2.16663 7.08335" stroke="black" stroke-opacity="0.58" stroke-width="1.5" stroke-linecap="round" stroke-linejoin="round"/>
</svg>
