<svg width="20" height="20" viewBox="0 0 20 20" fill="none" xmlns="http://www.w3.org/2000/svg">
<path d="M4.16663 18.3333V6.66666C4.16663 4.30963 4.16663 3.13112 4.89886 2.39889C5.63109 1.66666 6.8096 1.66666 9.16663 1.66666H10.8333C13.1903 1.66666 14.3688 1.66666 15.101 2.39889C15.8333 3.13112 15.8333 4.30963 15.8333 6.66666V18.3333H4.16663Z" stroke="black" stroke-opacity="0.58" stroke-width="1.5" stroke-linecap="round" stroke-linejoin="round"/>
<path d="M6.66663 9.16666V5.83332C6.66663 4.45443 6.9544 4.16666 8.33329 4.16666H11.6666C13.0455 4.16666 13.3333 4.45443 13.3333 5.83332V9.16666C13.3333 10.5456 13.0455 10.8333 11.6666 10.8333H8.33329C6.9544 10.8333 6.66663 10.5456 6.66663 9.16666Z" stroke="black" stroke-opacity="0.58" stroke-width="1.5" stroke-linecap="round" stroke-linejoin="round"/>
<path d="M2.5 18.3333H17.5" stroke="black" stroke-opacity="0.58" stroke-width="1.5" stroke-linecap="round" stroke-linejoin="round"/>
<path d="M9.99996 4.16666V10.8333M13.3333 7.49999H6.66663" stroke="black" stroke-opacity="0.58" stroke-width="1.5" stroke-linecap="round" stroke-linejoin="round"/>
<path d="M6.67339 14.1667H6.66589" stroke="black" stroke-opacity="0.58" stroke-width="2" stroke-linecap="round" stroke-linejoin="round"/>
</svg>
