<svg width="30" height="30" viewBox="0 0 30 30" fill="none" xmlns="http://www.w3.org/2000/svg">
<rect width="30" height="30" rx="15" fill="black"/>
<path d="M18.2922 15.0002L14.0462 10.754C13.9526 10.6605 13.9026 10.5457 13.8962 10.4097C13.8897 10.2739 13.9397 10.1528 14.0462 10.0465C14.1526 9.93997 14.2705 9.88672 14.4 9.88672C14.5295 9.88672 14.6474 9.93997 14.7537 10.0465L19.1422 14.4347C19.2294 14.5221 19.2907 14.6112 19.326 14.7022C19.3612 14.7932 19.3787 14.8926 19.3787 15.0002C19.3787 15.1079 19.3612 15.2072 19.326 15.2982C19.2907 15.3892 19.2294 15.4784 19.1422 15.5657L14.7537 19.954C14.6602 20.0476 14.5455 20.0976 14.4095 20.104C14.2737 20.1105 14.1526 20.0605 14.0462 19.954C13.9397 19.8476 13.8865 19.7297 13.8865 19.6002C13.8865 19.4707 13.9397 19.3528 14.0462 19.2465L18.2922 15.0002Z" fill="#E8EAED"/>
</svg>
