<svg width="30" height="30" viewBox="0 0 30 30" fill="none" xmlns="http://www.w3.org/2000/svg">
<rect x="0.683105" width="28.5679" height="30" rx="14.2839" fill="black"/>
<path d="M18.1021 15L14.0588 10.7537C13.9696 10.6602 13.922 10.5455 13.916 10.4095C13.9098 10.2736 13.9574 10.1526 14.0588 10.0462C14.1601 9.93972 14.2723 9.88647 14.3957 9.88647C14.519 9.88647 14.6313 9.93972 14.7325 10.0462L18.9115 14.4345C18.9945 14.5218 19.0529 14.611 19.0865 14.702C19.12 14.793 19.1367 14.8923 19.1367 15C19.1367 15.1076 19.12 15.207 19.0865 15.298C19.0529 15.389 18.9945 15.4781 18.9115 15.5655L14.7325 19.9537C14.6435 20.0474 14.5342 20.0974 14.4047 20.1037C14.2754 20.1102 14.1601 20.0602 14.0588 19.9537C13.9574 19.8474 13.9067 19.7295 13.9067 19.6C13.9067 19.4705 13.9574 19.3526 14.0588 19.2462L18.1021 15Z" fill="#E8EAED"/>
</svg>
