<svg width="21" height="20" viewBox="0 0 21 20" fill="none" xmlns="http://www.w3.org/2000/svg">
<path d="M7.56812 15H15.4769C16.4101 15 17.1667 14.2564 17.1667 13.3392C17.1667 12.0833 15.4769 11.6784 15.4769 11.6784C15.4769 11.6784 12.4037 10.497 8.83337 11.6667C8.83337 11.6667 8.71753 7.39394 6.92491 2.64221C6.57123 1.70471 5.4177 1.38461 4.5712 1.93924C4.0126 2.30524 3.73396 2.96637 3.86562 3.61336L5.9111 13.6649C6.06906 14.4412 6.7626 15 7.56812 15Z" stroke="black" stroke-opacity="0.58" stroke-width="1.5" stroke-linecap="round" stroke-linejoin="round"/>
<path d="M10.9166 8.75H15.5" stroke="black" stroke-opacity="0.58" stroke-width="1.5" stroke-linecap="round" stroke-linejoin="round"/>
<path d="M13.8333 15L11.3333 18.3333M11.3333 18.3333H7.16663M11.3333 18.3333H15.5" stroke="black" stroke-opacity="0.58" stroke-width="1.5" stroke-linecap="round" stroke-linejoin="round"/>
</svg>
