<svg width="20" height="20" viewBox="0 0 20 20" fill="none" xmlns="http://www.w3.org/2000/svg">
<path d="M6.66675 9.16666H14.2793C15.5002 9.16666 16.1106 9.16666 16.4792 9.77941C16.8477 10.3922 16.6307 10.7827 16.1965 11.5641C15.3348 13.115 13.663 14.1667 11.7418 14.1667C10.4547 14.1667 9.2795 13.6946 8.38491 12.9167" stroke="black" stroke-opacity="0.58" stroke-width="1.5" stroke-linecap="round" stroke-linejoin="round"/>
<path d="M6.66659 9.16666V3.33332C6.66659 2.54765 6.66659 2.15481 6.42251 1.91073C6.17843 1.66666 5.78559 1.66666 4.99992 1.66666C4.21424 1.66666 3.82141 1.66666 3.57733 1.91073C3.33325 2.15481 3.33325 2.54765 3.33325 3.33332V9.16666C3.33325 9.95232 3.33325 10.3452 3.57733 10.5892C3.82141 10.8333 4.21424 10.8333 4.99992 10.8333C5.78559 10.8333 6.17843 10.8333 6.42251 10.5892C6.66659 10.3452 6.66659 9.95232 6.66659 9.16666Z" stroke="black" stroke-opacity="0.58" stroke-width="1.5" stroke-linecap="round" stroke-linejoin="round"/>
<path d="M5.83325 5.83334H8.33325" stroke="black" stroke-opacity="0.58" stroke-width="1.5" stroke-linecap="round" stroke-linejoin="round"/>
<path d="M13.3333 14.1667C12.4999 15 13.3333 17.5 14.9996 18.3333H3.33325C4.16659 17.5 5.58325 14.8333 4.58325 10.8333" stroke="black" stroke-opacity="0.58" stroke-width="1.5" stroke-linecap="round" stroke-linejoin="round"/>
</svg>
