<svg width="30" height="30" viewBox="0 0 30 30" fill="none" xmlns="http://www.w3.org/2000/svg">
<rect width="30" height="30" rx="15" fill="black"/>
<path d="M18.5738 11.0065L10.4359 19.1282C10.3579 19.2062 10.2623 19.2425 10.149 19.2371C10.0358 19.2318 9.94017 19.1902 9.86211 19.1121C9.7842 19.0342 9.74524 18.9413 9.74524 18.8334C9.74524 18.7255 9.7842 18.6325 9.86211 18.5546L17.984 10.4167H10.6571C10.5391 10.4167 10.4401 10.3767 10.3602 10.2967C10.2804 10.2167 10.2404 10.1176 10.2404 9.99942C10.2404 9.88122 10.2804 9.78233 10.3602 9.70275C10.4401 9.62317 10.5391 9.58337 10.6571 9.58337H18.734C18.9247 9.58337 19.0845 9.64789 19.2136 9.77692C19.3426 9.90594 19.4071 10.0658 19.4071 10.2565V18.3334C19.4071 18.4514 19.3671 18.5504 19.2871 18.6302C19.2071 18.7101 19.108 18.75 18.9898 18.75C18.8716 18.75 18.7727 18.7101 18.6932 18.6302C18.6136 18.5504 18.5738 18.4514 18.5738 18.3334V11.0065Z" fill="#E8EAED"/>
</svg>
