<svg width="21" height="20" viewBox="0 0 21 20" fill="none" xmlns="http://www.w3.org/2000/svg">
<path d="M18.8334 10H2.16675" stroke="black" stroke-opacity="0.58" stroke-width="1.5" stroke-linecap="round" stroke-linejoin="round"/>
<path d="M16.9704 10L17.4788 8.60526C17.8624 7.55268 18.0543 7.02637 17.9865 6.55781C17.9373 6.21667 17.7956 5.89969 17.58 5.64807C17.2838 5.30248 16.7873 5.14675 15.794 4.8353M15.794 4.8353C15.794 5.10264 15.794 5.23632 15.7626 5.35441C15.7167 5.52727 15.6225 5.67996 15.4933 5.79099C15.4051 5.86684 15.292 5.91648 15.0658 6.01577L14.8562 6.10779C14.4185 6.29996 14.1996 6.39604 14.0375 6.29894C14.0156 6.2858 13.9948 6.2704 13.9756 6.25294C13.8333 6.12384 13.8333 5.86511 13.8333 5.34767V4.32293C13.8333 3.80549 13.8333 3.54676 13.9756 3.41766C13.9948 3.4002 14.0156 3.38479 14.0375 3.37166C14.1996 3.27455 14.4185 3.37064 14.8562 3.56281L15.0658 3.65483C15.292 3.75412 15.4051 3.80376 15.4933 3.87961C15.6225 3.99064 15.7167 4.14333 15.7626 4.31619C15.794 4.43428 15.794 4.56795 15.794 4.8353Z" stroke="black" stroke-opacity="0.58" stroke-width="1.5"/>
<path d="M17.1667 14.1667H13.8333C12.262 14.1667 11.4763 14.1667 10.9882 13.6785C10.5 13.1903 10.5 12.4047 10.5 10.8333V10" stroke="black" stroke-opacity="0.58" stroke-width="1.5" stroke-linecap="round" stroke-linejoin="round"/>
<path d="M3.83325 10V18.3333M17.1666 10V18.3333" stroke="black" stroke-opacity="0.58" stroke-width="1.5" stroke-linecap="round" stroke-linejoin="round"/>
<path d="M3 4.99999V4.16666C3 2.98815 3 2.39889 3.36612 2.03277C3.73223 1.66666 4.32149 1.66666 5.5 1.66666H8.83333C10.0118 1.66666 10.6011 1.66666 10.9673 2.03277C11.3333 2.39889 11.3333 2.98815 11.3333 4.16666V4.99999C11.3333 6.1785 11.3333 6.76776 10.9673 7.13387C10.6011 7.49999 10.0118 7.49999 8.83333 7.49999H5.5C4.32149 7.49999 3.73223 7.49999 3.36612 7.13387C3 6.76776 3 6.1785 3 4.99999Z" stroke="black" stroke-opacity="0.58" stroke-width="1.5" stroke-linecap="round" stroke-linejoin="round"/>
<path d="M8.41667 7.5L8.83333 10M5.91667 7.5L5.5 10" stroke="black" stroke-opacity="0.58" stroke-width="1.5" stroke-linecap="round" stroke-linejoin="round"/>
</svg>
